<svg xmlns="http://www.w3.org/2000/svg" width="16" height="34" viewBox="0 0 16 34" fill="none">
  <path fill-rule="evenodd" clip-rule="evenodd" d="M3.7973 0.227991C3.42134 0.882143 -0.110333 16.5162 0.02867 16.9099C0.128802 17.1931 0.931101 17.3279 2.5186 17.3279C3.80663 17.3279 4.8605 17.447 4.8605 17.5928C4.8605 17.7386 4.21804 19.6572 3.43284 21.8568C2.64796 24.0564 1.89168 26.2322 1.75268 26.692C1.61368 27.1519 1.12981 28.5669 0.677351 29.8364C0.224891 31.1059 -0.0730168 32.3477 0.0156093 32.5955C0.379443 33.6152 1.35122 32.9189 3.02423 30.44C13.3136 15.1952 16.089 10.9061 15.9978 10.3921C15.9117 9.9065 15.5025 9.7861 13.6684 9.7055L11.4437 9.60785L13.7635 5.39298C15.0398 3.07469 16.0404 0.936321 15.9876 0.641351C15.9042 0.174816 15.1128 0.09288 9.93209 0.0139537C6.57829 -0.0372147 3.89588 0.0564267 3.7973 0.227991ZM13.5676 1.89481C13.5676 2.05166 12.5038 4.08702 11.2036 6.41802C8.42514 11.3984 8.44224 11.6425 11.5665 11.6425H13.5319L10.3625 16.3504C8.61918 18.9395 6.52823 22.0525 5.71567 23.2681C4.90342 24.4834 4.23856 25.3165 4.23856 25.1189C4.23856 24.9212 4.88134 22.9313 5.66684 20.6973C6.45266 18.463 7.01676 16.4149 6.92067 16.1454C6.78851 15.7755 6.17341 15.6557 4.40369 15.6557C2.66257 15.6557 2.06178 15.5417 2.06178 15.2109C2.06178 14.8106 4.70408 3.03824 5.02096 2.02758C5.17334 1.54098 13.5676 1.41055 13.5676 1.89481Z" fill="#212529"/>
</svg>