<svg width="22" height="22" viewBox="0 0 22 22" fill="none" xmlns="http://www.w3.org/2000/svg">
<path d="M15 7.67285C16.5913 7.67285 18.1174 8.30592 19.2426 9.43278C20.3679 10.5596 21 12.088 21 13.6816V20.6918H17V13.6816C17 13.1504 16.7893 12.641 16.4142 12.2653C16.0391 11.8897 15.5304 11.6787 15 11.6787C14.4696 11.6787 13.9609 11.8897 13.5858 12.2653C13.2107 12.641 13 13.1504 13 13.6816V20.6918H9V13.6816C9 12.088 9.63214 10.5596 10.7574 9.43278C11.8826 8.30592 13.4087 7.67285 15 7.67285Z" stroke="#787C87" stroke-width="2" stroke-linecap="round" stroke-linejoin="round"/>
<path d="M5 8.67432H1V20.6918H5V8.67432Z" stroke="#787C87" stroke-width="2" stroke-linecap="round" stroke-linejoin="round"/>
<path d="M3 5.6699C4.10457 5.6699 5 4.77316 5 3.66698C5 2.5608 4.10457 1.66406 3 1.66406C1.89543 1.66406 1 2.5608 1 3.66698C1 4.77316 1.89543 5.6699 3 5.6699Z" stroke="#787C87" stroke-width="2" stroke-linecap="round" stroke-linejoin="round"/>
</svg>
