<svg width="22" height="23" viewBox="0 0 22 23" fill="none" xmlns="http://www.w3.org/2000/svg">
<path d="M16 1.7998H6C3.23858 1.7998 1 4.04165 1 6.80711V16.8217C1 19.5872 3.23858 21.829 6 21.829H16C18.7614 21.829 21 19.5872 21 16.8217V6.80711C21 4.04165 18.7614 1.7998 16 1.7998Z" stroke="#787C87" stroke-width="2" stroke-linecap="round" stroke-linejoin="round"/>
<path d="M15 11.1836C15.1234 12.0171 14.9812 12.8683 14.5937 13.6162C14.2062 14.3641 13.5931 14.9706 12.8416 15.3494C12.0901 15.7282 11.2384 15.86 10.4077 15.7262C9.57708 15.5923 8.80971 15.1996 8.21479 14.6038C7.61987 14.008 7.22768 13.2395 7.09402 12.4076C6.96035 11.5758 7.09202 10.7229 7.47028 9.97024C7.84854 9.21762 8.45414 8.60361 9.20094 8.21555C9.94773 7.82748 10.7977 7.68512 11.63 7.80871C12.4789 7.93478 13.2648 8.33094 13.8716 8.93867C14.4785 9.5464 14.8741 10.3335 15 11.1836Z" stroke="#787C87" stroke-width="2" stroke-linecap="round" stroke-linejoin="round"/>
<path d="M16.5 6.3064H16.51" stroke="#787C87" stroke-width="2" stroke-linecap="round" stroke-linejoin="round"/>
</svg>
