<svg xmlns="http://www.w3.org/2000/svg" width="32" height="33" viewBox="0 0 32 33" fill="none">
  <path fill-rule="evenodd" clip-rule="evenodd" d="M13.4984 1.09265C11.5662 1.79453 9.67545 3.97688 9.38496 5.84044C9.17752 7.16964 9.08447 7.27566 8.264 7.1145C6.6189 6.79219 6.08134 7.41243 6.21159 9.48133C6.32255 11.2403 6.25225 11.4156 4.68021 13.3028C3.48103 14.7426 2.71637 15.3417 1.87177 15.5042C0.106069 15.8439 -0.0858698 16.3111 0.0254342 20.0025L0.125022 23.3073L1.7012 23.8254C3.75567 24.5008 4.51378 25.5632 4.57787 27.8561C4.63886 30.036 5.39352 31.3288 7.08514 32.1523C8.58585 32.8828 10.6813 32.6785 12.008 31.6727C13.2858 30.7036 17.8696 30.4742 18.7945 31.333C20.3362 32.764 22.4199 33.0142 24.3466 31.9996C26.4386 30.898 27.309 28.7065 26.5103 26.5517C26.2663 25.894 26.3669 25.3172 26.9296 24.1513C27.7853 22.3775 28.1212 18.7387 27.5775 17.1384C27.2146 16.0708 27.2212 16.0623 28.4341 16.0623C29.3652 16.0623 29.9362 15.7757 30.8284 14.8607C31.8129 13.851 32 13.4057 32 12.0726C32 10.2663 30.9604 8.52569 30.2867 9.20355C30.0048 9.48699 30.0648 9.87963 30.5107 10.6769C31.2557 12.0079 30.9028 13.3466 29.5317 14.3935C28.256 15.3675 27.1357 14.9907 25.1719 12.9278C24.2838 11.9952 23.2931 11.0841 22.9702 10.9031C22.4665 10.6211 22.4347 10.3673 22.7456 9.11024C23.5395 5.90229 21.4916 2.22747 18.2579 1.05731C16.4316 0.396422 15.3933 0.404197 13.4984 1.09265ZM18.9089 2.72084C20.6094 3.90796 21.3951 5.20924 21.576 7.13818C21.7576 9.07526 20.8083 11.5085 19.616 12.1631C18.5532 12.7465 12.9901 12.6246 12.119 11.9987C11.0507 11.2314 10.16 8.59143 10.386 6.86323C10.6128 5.13043 12.06 3.08627 13.5225 2.43351C15.2238 1.67402 17.5901 1.80019 18.9089 2.72084ZM13.8812 4.35892C11.7347 5.70155 11.4887 8.71442 13.3743 10.567C15.1314 12.2938 18.1215 11.8644 19.3641 9.70681C21.4275 6.12459 17.3764 2.17304 13.8812 4.35892ZM17.0033 5.10357C18.1587 5.55417 18.9554 7.39936 18.5115 8.59638C17.8151 10.4755 15.6097 11.0077 14.1893 9.63931C12.8681 8.36595 13.262 5.77718 14.8788 5.10887C15.8775 4.69643 15.9578 4.69608 17.0033 5.10357ZM8.71162 8.50166C9.01142 8.6197 9.25746 8.97736 9.25815 9.29685C9.25884 9.61634 9.58448 10.4246 9.9818 11.0933C10.6562 12.2274 10.6651 12.3383 10.1186 12.7483C8.83671 13.7096 9.97697 13.9418 15.9764 13.9418C21.9968 13.9418 23.117 13.7103 21.8169 12.7352C21.3658 12.397 21.3207 12.2146 21.638 12.0132C22.3641 11.5531 24.5237 13.7008 25.7439 16.0966C26.7246 18.0223 26.8748 18.6327 26.7508 20.1941C26.6684 21.2338 26.2074 22.8154 25.687 23.8445C24.9903 25.2214 24.851 25.8187 25.1105 26.3159C25.2987 26.6768 25.4527 27.5465 25.4527 28.2488C25.4527 30.9892 21.9199 32.3251 19.7073 30.4212C18.811 29.6501 18.4778 29.5918 15.5422 29.6914C12.9436 29.7798 12.1834 29.9353 11.4467 30.5294C10.1055 31.6115 7.76468 31.5281 6.62338 30.3576C5.87561 29.5907 5.76431 29.2076 5.87975 27.7953C6.06617 25.507 4.69469 23.4741 2.60162 22.9369L1.15881 22.5666V19.7732V16.9798L2.61851 16.6094C3.52582 16.3793 4.2953 15.9047 4.65161 15.3555C4.96657 14.8695 5.76672 13.8849 6.42938 13.1671C7.56585 11.9365 7.62271 11.7609 7.42801 10.0747C7.21402 8.22105 7.40458 7.98744 8.71162 8.50166ZM7.70472 17.124C6.78362 18.1679 7.47005 19.5964 8.89254 19.5964C10.426 19.5964 11.1372 18.0414 10.0938 16.9709C9.35705 16.2157 8.45525 16.2733 7.70472 17.124ZM9.25677 18.1828C9.25677 18.3772 9.1017 18.5362 8.91218 18.5362C8.72265 18.5362 8.56758 18.3772 8.56758 18.1828C8.56758 17.9884 8.72265 17.8294 8.91218 17.8294C9.1017 17.8294 9.25677 17.9884 9.25677 18.1828Z" fill="#212529"/>
</svg>