<svg width="32" height="32" viewBox="0 0 32 32" fill="none" xmlns="http://www.w3.org/2000/svg">
<path fill-rule="evenodd" clip-rule="evenodd" d="M5.11662 0.219626C5.02114 0.313936 4.94309 0.875162 4.94309 1.46654C4.94309 2.3496 4.83226 2.59182 4.32286 2.82167C3.78589 3.06415 3.60481 3.0005 2.9734 2.3478C2.57223 1.93319 2.09743 1.59383 1.91792 1.59383C1.20872 1.59383 1.2839 2.19628 2.09665 3.02679C2.85008 3.79673 2.91694 3.97479 2.6612 4.53034C2.44995 4.98979 2.22725 5.12352 1.84013 5.02329C0.953496 4.79369 0 5.15547 0 5.7216C0 6.16068 0.177431 6.23206 1.27037 6.23206C2.35577 6.23206 2.5626 6.31374 2.68878 6.792C2.79259 7.1847 2.60345 7.61502 2.05632 8.23242C1.43636 8.93151 1.33854 9.18738 1.58023 9.47624C1.97463 9.94677 1.92234 9.96223 2.93776 9.0789C3.5494 8.54731 3.98257 8.36255 4.37776 8.46485C4.86218 8.59034 4.94309 8.79417 4.94309 9.8875C4.94309 11.0638 4.98914 11.1573 5.52846 11.0816C6.02589 11.0115 6.12553 10.819 6.19213 9.80169C6.29672 8.20021 7.03115 7.94923 8.23389 9.10364C9.02504 9.86328 9.62602 9.91713 9.62602 9.22836C9.62602 9.05056 9.28338 8.58029 8.86478 8.18295C8.20579 7.55756 8.14153 7.37822 8.38634 6.84637C8.62127 6.33539 8.86036 6.23206 9.80605 6.23206C10.591 6.23206 10.9908 6.10889 11.0972 5.83446C11.3126 5.27813 11.1209 5.1596 9.75948 5.00782C8.13164 4.8259 7.82699 4.2353 8.85672 3.25818C9.27974 2.85672 9.62602 2.31791 9.62602 2.061C9.62602 1.34594 8.77867 1.49462 7.94563 2.35579C6.99941 3.3342 6.2439 3.05822 6.2439 1.73478C6.2439 0.307237 5.728 -0.386179 5.11662 0.219626ZM6.78426 4.40846C7.68338 5.299 7.73958 5.91717 7.0054 6.84147C6.32351 7.70032 5.09632 7.75288 4.24429 6.96026C2.98276 5.78602 3.86732 3.75731 5.67857 3.6715C5.86849 3.66274 6.36592 3.99411 6.78426 4.40846ZM11.7073 8.51278C11.7073 8.91038 12.4912 9.21264 16.4038 10.3235C18.9869 11.0568 21.2113 11.5892 21.3469 11.5062C21.9255 11.1522 21.5082 10.6268 20.3577 10.2606C17.9101 9.48165 12.5726 8.03582 12.1446 8.03582C11.8926 8.03582 11.7073 8.23784 11.7073 8.51278ZM10.4065 10.9272C10.4065 11.4444 13.3045 14.1902 13.6939 14.0421C14.3147 13.8063 14.0847 13.3358 12.6749 11.9567C11.3683 10.6788 10.4065 10.2423 10.4065 10.9272ZM2.47076 15.9595C1.87707 17.3952 0 23.1619 0 23.5502C0 23.9684 0.294504 24.0119 3.12195 24.0119C6.24078 24.0119 6.2439 24.0125 6.2439 24.6283C6.2439 25.0707 6.06049 25.29 5.5935 25.4062C4.95428 25.565 4.94309 25.6119 4.94309 28.1302V30.6923L2.53659 30.7662C0.328585 30.8343 0.130081 30.883 0.130081 31.3558C0.130081 31.856 0.326764 31.8732 6.83577 31.94C12.8138 32.0013 13.5589 31.9634 13.703 31.5918C13.9611 30.9255 13.2946 30.7198 10.8618 30.7155L8.58537 30.7116V28.1397C8.58537 25.5969 8.57782 25.566 7.92091 25.4026C7.43024 25.2808 7.27727 25.0944 7.33554 24.6891C7.40839 24.1848 7.6121 24.1305 9.86615 24.0119L12.3177 23.8831L13.5568 20.2756C14.2384 18.2915 14.8038 16.407 14.8129 16.0883L14.8293 15.5085H8.74328C3.19167 15.5085 2.64091 15.5482 2.47076 15.9595ZM19.6345 15.8306C18.9034 17.7689 17.1707 23.1923 17.1707 23.5422C17.1707 23.9452 17.511 24.0037 20.2276 24.0681C23.1206 24.1369 23.2887 24.1702 23.3636 24.6891C23.4219 25.0944 23.2689 25.2808 22.7783 25.4026C22.1214 25.566 22.1138 25.5969 22.1138 28.1397V30.7116L20.4878 30.7155C18.6773 30.7198 18.0555 30.9685 18.297 31.5918C18.4411 31.9634 19.1862 32.0013 25.1642 31.94C31.6732 31.8732 31.8699 31.856 31.8699 31.3558C31.8699 30.8737 31.6719 30.8358 28.813 30.7678L25.7561 30.6954V28.1315C25.7561 25.5974 25.7483 25.566 25.0916 25.4026C24.601 25.2808 24.448 25.0944 24.5063 24.6891C24.5791 24.1851 24.7828 24.1305 27.0351 24.0119L29.4847 23.8831L30.7424 20.1534C31.4341 18.1023 32 16.2179 32 15.9662C32 15.5407 31.5694 15.5085 25.8781 15.5085C21.2186 15.5085 19.7271 15.5856 19.6345 15.8306ZM5.98374 16.6222C5.98374 16.6678 5.7972 17.2476 5.56904 17.9106L5.15434 19.116H3.86263C3.15213 19.116 2.62452 19.0289 2.69008 18.9228C2.75538 18.8166 2.94244 18.2368 3.10556 17.6344L3.40215 16.5392H4.69307C5.4028 16.5392 5.98374 16.5766 5.98374 16.6222ZM9.48579 17.3767C9.15538 18.9016 8.92748 19.116 7.63733 19.116C6.50407 19.116 6.45515 19.0861 6.60813 18.4832C7.06367 16.6853 7.20338 16.5392 8.46959 16.5392H9.66738L9.48579 17.3767ZM13.5285 16.6222C13.5285 16.6678 13.3419 17.2476 13.1138 17.9106L12.6991 19.116H11.4341H10.1695L10.5418 18.0711C10.7463 17.4963 10.9822 16.9165 11.0658 16.7827C11.2008 16.5665 13.5285 16.4148 13.5285 16.6222ZM22.8943 16.8314C22.8943 16.9922 22.7588 17.572 22.593 18.1198C22.297 19.098 22.2689 19.116 21.0321 19.116C20.3393 19.116 19.7724 19.0787 19.7724 19.0331C19.7724 18.9874 19.9589 18.4077 20.1871 17.7447C20.5968 16.5537 20.6155 16.5392 21.748 16.5392C22.4291 16.5392 22.8943 16.6578 22.8943 16.8314ZM26.6927 17.1721C26.2366 18.9722 26.0982 19.116 24.8237 19.116C23.6738 19.116 23.6256 19.0869 23.7789 18.4832C24.2349 16.683 24.3733 16.5392 25.6479 16.5392C26.7978 16.5392 26.8459 16.5684 26.6927 17.1721ZM30.6992 16.6222C30.6992 16.6678 30.5126 17.2476 30.2845 17.9106L29.8698 19.116H28.5934C27.8915 19.116 27.3171 19.0787 27.3171 19.0331C27.3171 18.9874 27.5036 18.4077 27.7318 17.7447L28.1465 16.5392H29.4228C30.1247 16.5392 30.6992 16.5766 30.6992 16.6222ZM4.68293 20.4874C4.68293 20.533 4.49639 21.1128 4.26823 21.7758L3.85353 22.9812H2.54933C1.40982 22.9812 1.26855 22.9243 1.43115 22.5303C1.53366 22.2821 1.72722 21.7024 1.86146 21.2419C2.09483 20.4423 2.16403 20.4044 3.39434 20.4044C4.10302 20.4044 4.68293 20.4418 4.68293 20.4874ZM8.22114 21.0373C7.76507 22.8374 7.62667 22.9812 6.35213 22.9812C5.20221 22.9812 5.15408 22.9521 5.30732 22.3484C5.76338 20.5482 5.90179 20.4044 7.17632 20.4044C8.32624 20.4044 8.37437 20.4335 8.22114 21.0373ZM12.2276 20.4874C12.2276 20.533 12.0411 21.1128 11.8129 21.7758C11.4032 22.9668 11.3845 22.9812 10.252 22.9812C8.9946 22.9812 8.95271 22.9029 9.40696 21.4006C9.70302 20.4225 9.73112 20.4044 10.9679 20.4044C11.6607 20.4044 12.2276 20.4418 12.2276 20.4874ZM21.8537 20.5119C21.8537 20.5709 21.6237 21.1507 21.3427 21.8003C20.8429 22.9552 20.8055 22.9812 19.6516 22.9812C19.0025 22.9812 18.4715 22.9439 18.4715 22.8982C18.4715 22.8526 18.6581 22.2729 18.8862 21.6098L19.3009 20.4044H20.5773C21.2792 20.4044 21.8537 20.4529 21.8537 20.5119ZM25.3919 21.0373C24.9363 22.8351 24.7966 22.9812 23.5304 22.9812H22.3326L22.5142 22.1438C22.8446 20.6188 23.0725 20.4044 24.3627 20.4044C25.4959 20.4044 25.5448 20.4343 25.3919 21.0373ZM29.268 20.8554C29.1655 21.1035 28.972 21.6833 28.8377 22.1438C28.6036 22.9464 28.5388 22.9812 27.277 22.9812C26.3326 22.9812 25.9949 22.8903 26.0818 22.6591C26.1484 22.4821 26.3599 21.9023 26.5522 21.3707C26.8912 20.4325 26.9383 20.4044 28.1777 20.4044C29.2907 20.4044 29.4301 20.4621 29.268 20.8554ZM7.54471 28.6502C7.54471 30.6773 7.53379 30.7116 6.89431 30.7116C6.25483 30.7116 6.2439 30.6773 6.2439 28.6502C6.2439 26.623 6.25483 26.5887 6.89431 26.5887C7.53379 26.5887 7.54471 26.623 7.54471 28.6502ZM24.6613 28.7146L24.7373 30.7116H23.9459H23.1545V28.822C23.1545 26.7681 23.2533 26.5287 24.0544 26.6423C24.5289 26.7096 24.5934 26.9299 24.6613 28.7146ZM15.6758 31.0069C15.3277 31.3517 15.5393 32 16 32C16.4803 32 16.6788 31.3133 16.2906 30.9943C16.0601 30.8049 15.8762 30.8085 15.6758 31.0069Z" fill="#212529"/>
</svg>
