<svg width="104" height="73" viewBox="0 0 104 73" fill="none" xmlns="http://www.w3.org/2000/svg">
<path fill-rule="evenodd" clip-rule="evenodd" d="M70.2766 2.21195C69.6764 2.97786 68.6038 4.3352 67.8932 5.22832C65.463 8.2819 64.7129 9.26457 64.7692 9.32084C64.8001 9.3518 65.5773 9.47873 66.4962 9.60303C67.4151 9.72734 69.28 9.99558 70.6404 10.1991C74.9373 10.842 75.37 10.8977 75.4493 10.8183C75.4921 10.7757 75.4269 10.52 75.3047 10.2503C75.1825 9.98046 74.5863 8.48398 73.9798 6.9247C73.3735 5.36542 72.7927 3.89336 72.6891 3.65347C72.5857 3.41358 72.2878 2.67763 72.0272 2.01786C71.7667 1.35809 71.5116 0.818557 71.4607 0.818848C71.4096 0.818993 70.8768 1.44591 70.2766 2.21195ZM51.9608 5.50717C51.113 11.9538 50.9064 13.6419 50.9586 13.6941C51.0072 13.7427 52.3448 13.203 56.0906 11.6233C57.2012 11.155 60.5206 9.35675 60.5249 9.2211C60.5268 9.16469 59.0786 8.01976 57.3067 6.67682C55.535 5.33387 53.7388 3.9569 53.3154 3.61713C52.892 3.27736 52.4882 2.99923 52.4181 2.99923C52.348 2.99923 52.1421 4.12773 51.9608 5.50717ZM88.2455 8.28859C83.2995 10.3255 80.0721 11.6816 79.7729 11.849C79.6138 11.938 80.5887 12.7581 83.529 15.008C87.8911 18.3464 88.121 18.5107 88.249 18.3826C88.2975 18.3343 88.5968 16.2435 88.9143 13.7364C89.2316 11.2295 89.5312 8.86752 89.5799 8.48762C89.6285 8.10772 89.61 7.79979 89.5389 7.80313C89.4677 7.80648 88.8857 8.025 88.2455 8.28859ZM46.1818 19.2572C46.0135 19.3978 45.8007 19.653 45.7089 19.8244C45.4716 20.2675 45.4705 48.044 45.7078 48.5645C46.0159 49.2406 47.3062 49.585 48.2242 49.2362C48.4295 49.1583 48.7282 48.8801 48.8879 48.6183C49.1729 48.1512 49.1785 47.8781 49.1789 34.2429C49.1793 25.0932 49.1284 20.1972 49.0298 19.9148C48.9476 19.6788 48.6919 19.3747 48.4618 19.2389C47.8955 18.9047 46.5914 18.9151 46.1818 19.2572ZM55.6928 19.4161L55.2176 19.8402L55.174 33.7732C55.143 43.6321 55.1773 47.8674 55.291 48.2582C55.3975 48.624 55.6087 48.9059 55.9166 49.0936C56.8073 49.6361 58.29 49.3429 58.6141 48.5598C58.7445 48.2448 58.7775 44.6482 58.7483 33.9167L58.7096 19.6912L58.2731 19.3423C57.9269 19.0655 57.664 18.9932 57.0023 18.9926C56.2854 18.992 56.1009 19.0516 55.6928 19.4161ZM36.9737 19.4856C36.0219 20.0127 35.9584 21.934 36.8732 22.5328C37.6915 23.0686 38.8809 22.929 39.4288 22.233C39.6483 21.9545 39.7222 21.6425 39.7222 20.9965C39.7222 20.2355 39.6715 20.082 39.2969 19.7076C38.9312 19.3423 38.7627 19.2834 38.0965 19.2878C37.6702 19.2907 37.165 19.3796 36.9737 19.4856ZM90.7918 21.8541C90.7918 21.9231 91.158 22.8611 91.6055 23.9387C92.0531 25.0162 92.7021 26.5848 93.0478 27.4244C94.3281 30.5334 94.7963 31.5855 94.9275 31.6486C95.0016 31.6842 95.7388 30.8301 96.5658 29.7506C100.888 24.1084 101.552 23.1968 101.378 23.1373C101.143 23.0571 99.709 22.8641 95.3749 22.3298C93.4544 22.093 91.6375 21.8608 91.3374 21.814C91.0374 21.7671 90.7918 21.7851 90.7918 21.8541ZM68.6347 30.0494C66.2274 30.446 64.0194 32.5018 63.4913 34.8381C63.2805 35.7714 63.281 35.9445 63.4973 36.9018C63.9727 39.0054 64.9225 40.0167 67.2751 40.9248C68.1333 41.256 68.8996 41.527 68.9782 41.527C69.3126 41.527 70.8542 42.4206 71.1348 42.777C72.0911 43.9919 70.6187 45.7994 68.6632 45.811C67.9382 45.8154 67.7252 45.7384 66.699 45.1014C65.4911 44.3513 64.8477 44.2154 64.1845 44.5701C63.7016 44.8283 63.2939 45.5939 63.2933 46.2438C63.2927 46.7458 63.3889 46.9103 64.0656 47.5652C65.4353 48.8909 67.1243 49.4598 69.3709 49.3525C70.5269 49.2972 70.82 49.224 71.7799 48.7499C74.1365 47.5862 75.3663 45.2254 74.9557 42.6538C74.752 41.3777 74.4384 40.7277 73.6511 39.9488C72.9472 39.2526 71.7371 38.6975 69.1215 37.8709C68.4214 37.6497 67.8627 37.3627 67.5392 37.0584C67.0684 36.6152 67.0431 36.5431 67.1033 35.8167C67.1849 34.8323 67.6252 34.2245 68.542 33.8305C68.9255 33.6656 69.3284 33.5307 69.4372 33.5307C69.5461 33.5307 70.2078 33.8251 70.9075 34.1849C72.5048 35.0061 72.8954 35.019 73.6402 34.2748C74.1463 33.7691 74.205 33.6343 74.205 32.9808C74.205 32.283 74.1707 32.22 73.4122 31.5272C72.189 30.4102 70.1928 29.7927 68.6347 30.0494ZM37.0188 30.2078C36.8524 30.2885 36.6069 30.5395 36.4732 30.7655C36.2538 31.1369 36.2302 31.9929 36.2302 39.6135C36.2302 44.6338 36.2867 48.1987 36.3695 48.4165C36.6936 49.2683 38.618 49.528 39.3306 48.8162L39.6494 48.4976L39.6893 39.8895C39.7184 33.5909 39.6836 31.1716 39.5596 30.8725C39.4664 30.6478 39.2062 30.3688 38.9814 30.2526C38.5172 30.0127 37.4704 29.9889 37.0188 30.2078ZM3.96486 30.5248C3.78416 30.6251 3.52226 30.8682 3.38287 31.0649C3.15124 31.392 3.12564 32.0862 3.08344 39.2008C3.05813 43.4788 3.07951 47.3246 3.13087 47.7471C3.27011 48.8905 3.65757 49.267 4.77805 49.348C5.64056 49.4104 5.68741 49.3954 6.18224 48.9009L6.69425 48.3893L6.69643 43.3952C6.69891 37.7095 6.78591 37.0194 7.64915 35.8444C8.85765 34.1993 11.1754 33.5321 12.8779 34.3392C13.5718 34.668 14.574 35.6344 14.9256 36.3137C15.5056 37.4339 15.5661 38.0846 15.5678 43.2259C15.5689 46.098 15.6295 48.3532 15.7115 48.5687C15.7894 48.7739 16.0678 49.0723 16.3298 49.232C17.1466 49.7296 18.1561 49.5546 18.8436 48.7964C19.1206 48.4908 19.1378 48.2148 19.207 42.9296L19.2798 37.3834L19.6831 36.563C20.6287 34.6397 22.7529 33.6 24.6579 34.1285C25.6431 34.4018 26.7177 35.1968 27.3138 36.0934L27.8641 36.9213L27.9369 42.5316C28.0125 48.3681 28.0355 48.577 28.6517 49.044C29.0581 49.3521 30.024 49.4217 30.5932 49.184C31.5686 48.7768 31.5743 48.7382 31.5743 42.5643V37.0448L31.1228 35.8634C29.9452 32.7816 28.0589 31.0832 25.2217 30.5496C23.6195 30.2482 22.3047 30.35 20.7503 30.8959C19.8602 31.2085 18.2427 32.2863 17.7784 32.876C17.6208 33.0762 17.4324 33.2399 17.3595 33.2399C17.2868 33.2399 17.0016 33.0057 16.7257 32.7194C15.4484 31.3933 14.1618 30.7578 12.1488 30.4588C10.435 30.2041 8.63635 30.6536 7.39395 31.6473C6.73746 32.1723 6.69425 32.1751 6.69425 31.6941C6.69425 31.4438 6.5147 31.1422 6.17468 30.8218C5.7344 30.407 5.55107 30.3329 4.97432 30.3372C4.59981 30.3401 4.14572 30.4245 3.96486 30.5248ZM95.3871 36.178C95.349 36.3612 95.1122 38.1794 94.8607 40.2185C94.6092 42.2576 94.3199 44.5147 94.2178 45.2344C94.1156 45.9541 94.0554 46.5695 94.0838 46.602C94.13 46.6551 102.383 43.2682 103.562 42.7125C103.823 42.5892 104.02 42.4426 103.998 42.387C103.948 42.257 102.921 41.4558 98.1397 37.8196C95.2786 35.6434 95.4739 35.7599 95.3871 36.178ZM91.6019 51.5275C91.1294 52.1444 90.1484 53.4296 89.4216 54.3836C88.6947 55.3375 87.6253 56.7408 87.0452 57.5019C86.4651 58.263 85.9903 58.9293 85.9903 58.9825C85.9903 59.0917 86.1155 59.1111 90.6463 59.7061C95.215 60.3062 96.6191 60.4697 96.6709 60.4081C96.6956 60.3787 96.2102 59.1444 95.5923 57.665C94.9745 56.1857 94.0628 53.994 93.5665 52.7946C93.0702 51.5951 92.6183 50.5669 92.5623 50.5098C92.5064 50.4526 92.0742 50.9106 91.6019 51.5275ZM20.6928 53.6215C20.5692 53.7451 20.5165 54.5008 20.5165 56.1498C20.5165 58.0918 20.5556 58.5342 20.7409 58.6878C21.1775 59.05 21.2518 58.6358 21.2111 56.0669C21.1718 53.5804 21.0953 53.2194 20.6928 53.6215ZM24.148 53.8432C24.0345 54.0661 23.4304 55.1875 22.8056 56.335C21.9334 57.9371 21.7071 58.467 21.8312 58.6163C22.0968 58.936 22.3547 58.7133 22.8608 57.7273L23.3405 56.7927H24.545H25.7495L26.1004 57.4848C26.6134 58.4962 26.9447 58.8561 27.2084 58.6878C27.3923 58.5705 27.331 58.3642 26.8093 57.3439C25.3192 54.4297 24.7941 53.519 24.5816 53.4799C24.4529 53.4562 24.2648 53.614 24.148 53.8432ZM57.8609 53.5458C57.6956 53.7108 57.7477 58.6556 57.9157 58.7594C58.2482 58.9648 58.4791 58.5013 58.5213 57.5435L58.5641 56.5746L59.9827 56.5331C61.0564 56.5015 61.4056 56.5368 61.4193 56.6784C61.4292 56.7812 61.4251 57.1925 61.4101 57.5924C61.3815 58.3558 61.6617 58.954 61.9612 58.7691C62.0773 58.6974 62.1288 57.8884 62.1288 56.1385C62.1288 54.3886 62.0773 53.5795 61.9612 53.5078C61.6661 53.3257 61.3845 53.922 61.4058 54.6846C61.417 55.0844 61.4205 55.4934 61.4136 55.5933C61.4046 55.7257 61.0067 55.775 59.9463 55.775H58.4913V54.7864C58.4913 53.7182 58.2208 53.1859 57.8609 53.5458ZM63.9254 55.8113C62.4931 58.4398 62.4573 58.5262 62.7279 58.6934C63.0033 58.8635 63.2572 58.5993 63.7432 57.6374L64.1699 56.7927L65.3681 56.7932L66.5664 56.7934L67.0757 57.7673C67.3558 58.3027 67.6667 58.7659 67.7666 58.7966C68.0822 58.8933 68.1451 58.3862 67.8861 57.8335C67.1323 56.2248 65.5567 53.4488 65.3975 53.4488C65.2958 53.4488 64.6334 54.512 63.9254 55.8113ZM72.1863 53.6449C72.0667 53.789 72.0274 54.5854 72.0553 56.3031C72.0936 58.6452 72.1084 58.7555 72.3863 58.7555C72.6666 58.7555 72.6773 58.6585 72.6773 56.1505C72.6773 53.5527 72.5982 53.149 72.1863 53.6449ZM75.0916 54.8663C74.684 55.6459 74.0889 56.7681 73.7691 57.36C73.3388 58.1569 73.2282 58.4849 73.3433 58.6236C73.595 58.9266 73.8115 58.736 74.351 57.7361L74.8598 56.7932L76.0581 56.7929L77.2563 56.7927L77.7137 57.7014C78.231 58.7291 78.4136 58.9013 78.6916 58.6234C78.8538 58.4615 78.724 58.1189 77.9085 56.5569C76.4966 53.8524 76.2528 53.4488 76.0312 53.4488C75.9219 53.4488 75.4991 54.0868 75.0916 54.8663ZM0.00136862 56.1215C0.00136862 59.0138 -0.100625 58.8244 1.45634 58.8239C2.37603 58.8236 2.67067 58.6889 2.59675 58.3018C2.5534 58.0746 2.39014 58.0212 1.62905 57.985L0.713433 57.9416L0.75752 57.2581L0.801604 56.5746L1.60184 56.53C2.50843 56.4794 2.75491 56.3304 2.47992 55.9992C2.35392 55.8475 2.03804 55.775 1.50334 55.775H0.712851L0.757229 55.0844L0.801604 54.3938L1.62687 54.3203C2.53608 54.2393 2.6986 54.1529 2.57013 53.8185C2.50174 53.6406 2.22719 53.5942 1.24261 53.5942H0.00136862V56.1215ZM3.44485 53.6912C3.27972 53.856 3.33166 58.6556 3.49971 58.7594C3.58323 58.811 3.74691 58.7741 3.86345 58.6775C4.02714 58.5417 4.0753 58.1095 4.0753 56.775C4.0753 55.8252 4.12433 55.0546 4.18442 55.0626C4.24451 55.0706 5.04649 55.8862 5.96676 56.8749C8.24671 59.3245 8.22197 59.3326 8.22197 56.1385C8.22197 53.6861 8.2195 53.6666 7.8946 53.6204C7.56942 53.5743 7.56723 53.5868 7.56723 55.474C7.56723 56.5678 7.50904 57.3743 7.43003 57.3743C7.35452 57.3743 7.19316 57.2324 7.07152 57.0588C6.77282 56.6326 3.7632 53.5942 3.63982 53.5942C3.58599 53.5942 3.49811 53.6378 3.44485 53.6912ZM9.11925 53.6912C8.9368 53.8733 9.00853 58.4655 9.19681 58.6537C9.37751 58.8342 11.0001 58.8975 11.411 58.7399C11.5376 58.6913 11.6412 58.5348 11.6412 58.392C11.6412 58.0601 11.3583 57.9558 10.4573 57.9558H9.73369L9.77807 57.2652L9.82244 56.5746L10.6682 56.5307C11.4455 56.4905 11.5102 56.4609 11.4685 56.1673C11.4284 55.8865 11.3212 55.8425 10.5863 55.8041L9.74969 55.7605V55.0408V54.3211H10.5322C11.3167 54.3211 11.7723 54.0692 11.5723 53.746C11.4703 53.581 9.27843 53.532 9.11925 53.6912ZM12.4657 53.6912C12.3006 53.856 12.3525 58.6556 12.5205 58.7594C12.8369 58.9548 13.0961 58.5049 13.0961 57.7604V57.0192L14.0094 57.9237C14.97 58.8751 15.188 58.9831 15.3413 58.5839C15.4069 58.4129 15.2149 58.1168 14.7021 57.5979C14.299 57.1901 13.9691 56.7965 13.9691 56.7234C13.9691 56.6504 14.1476 56.4042 14.3659 56.1767C14.9811 55.5351 14.9261 54.733 14.2226 54.0888C13.8038 53.7054 13.5565 53.5942 13.1225 53.5942C12.8146 53.5942 12.5189 53.6378 12.4657 53.6912ZM16.7337 53.7575C15.9329 54.0766 15.3353 54.9017 15.2728 55.775C15.1907 56.9189 15.2715 57.2202 15.8242 57.8322C16.4402 58.5144 17.0681 58.8281 17.8172 58.8281C18.4774 58.8281 19.467 58.4308 19.6477 58.0932C19.8418 57.731 19.8261 56.3064 19.6258 56.1062C19.29 55.7706 19.0615 56.077 19.0615 56.8632C19.0615 57.7665 18.8862 57.9647 18.0065 58.0553C16.9304 58.166 15.8606 57.2587 15.8606 56.2354C15.8606 55.7155 16.2835 54.932 16.7392 54.6078C17.436 54.1121 17.9326 54.0975 18.7622 54.5487C19.3055 54.8442 19.5491 54.9098 19.6667 54.7923C19.9025 54.5567 19.7183 54.217 19.1756 53.8863C18.6511 53.5668 17.3805 53.4998 16.7337 53.7575ZM29.6344 53.6912C29.581 53.7444 29.5373 54.8544 29.5373 56.1575C29.5373 58.8939 29.5034 58.8297 30.9463 58.826C31.9113 58.8233 32.2074 58.6926 32.1327 58.3018C32.0894 58.0746 31.9261 58.0212 31.165 57.985L30.2494 57.9416L30.2935 57.2581L30.3376 56.5746L31.1378 56.53C32.0444 56.4794 32.2909 56.3304 32.0159 55.9992C31.8903 55.848 31.5747 55.775 31.0473 55.775H30.2648V55.0481V54.3211L31.0287 54.3189C31.9005 54.3163 32.2382 54.1627 32.1093 53.827C32.0379 53.6409 31.7907 53.5942 30.8756 53.5942C30.2462 53.5942 29.6876 53.6378 29.6344 53.6912ZM34.7268 53.6912C34.6734 53.7444 34.6298 54.8544 34.6298 56.1575C34.6298 58.8835 34.6015 58.8281 35.9904 58.8281C36.9656 58.8281 37.2487 58.73 37.2487 58.392C37.2487 58.0601 36.9659 57.9558 36.0648 57.9558H35.3412L35.3856 57.2652L35.43 56.5746L36.2302 56.53C37.1368 56.4794 37.3833 56.3304 37.1083 55.9992C36.9827 55.848 36.6671 55.775 36.1397 55.775H35.3572V55.0481V54.3211L36.1211 54.3189C36.9929 54.3163 37.3306 54.1627 37.2017 53.827C37.1303 53.6409 36.8831 53.5942 35.968 53.5942C35.3386 53.5942 34.78 53.6378 34.7268 53.6912ZM37.9813 53.8754C37.8215 54.1737 37.7735 57.9458 37.9224 58.501C38.03 58.9024 38.3501 58.9257 38.5531 58.547C38.6359 58.3923 38.7067 57.5253 38.7107 56.6206L38.7176 54.9754L40.494 56.8291C41.4712 57.8487 42.3846 58.6828 42.5242 58.6828C42.7555 58.6828 42.7776 58.4605 42.7776 56.1385C42.7776 53.6912 42.7665 53.5942 42.4866 53.5942C42.2106 53.5942 42.1956 53.6912 42.1956 55.4842C42.1956 56.5237 42.1466 57.3734 42.0865 57.3722C42.0264 57.3711 41.1687 56.5206 40.1805 55.4822C39.1921 54.4438 38.3268 53.5942 38.2577 53.5942C38.1885 53.5942 38.0642 53.7207 37.9813 53.8754ZM44.88 53.7987C44.0618 54.1549 43.3557 55.3119 43.3637 56.2839C43.3702 57.094 44.316 58.3581 45.1514 58.6734C46.0215 59.002 47.5636 58.6733 47.8742 58.0932C48.0683 57.731 48.0526 56.3064 47.8523 56.1062C47.5165 55.7706 47.288 56.077 47.288 56.8632C47.288 57.7491 47.1236 57.9471 46.2954 58.058C45.2195 58.2023 44.0871 57.2949 44.0871 56.2887C44.0871 55.3717 44.8783 54.4156 45.7845 54.2378C46.1783 54.1605 46.911 54.4022 47.4658 54.7925C47.656 54.9264 47.7573 54.9281 47.8853 54.8002C48.1286 54.5571 47.9506 54.2205 47.4021 53.8863C46.8395 53.5436 45.5678 53.4994 44.88 53.7987ZM48.84 53.6912C48.6576 53.8733 48.7293 58.4655 48.9176 58.6537C49.1807 58.9165 50.9905 58.8822 51.2165 58.6101C51.5374 58.2235 51.1399 57.9558 50.245 57.9558H49.4545L49.4989 57.2652L49.5432 56.5746L50.3147 56.5304C50.8466 56.4999 51.113 56.4164 51.1725 56.2613C51.2955 55.941 50.9589 55.7798 50.1616 55.7772L49.4705 55.775V55.0481V54.3211H50.2416C51.0417 54.3211 51.3945 54.1391 51.2623 53.7945C51.2061 53.6483 50.882 53.5942 50.0612 53.5942C49.4428 53.5942 48.8933 53.6378 48.84 53.6912ZM52.0084 53.7814C51.9688 53.8845 51.9546 55.0459 51.9765 56.3621C52.0148 58.6451 52.0301 58.7555 52.3077 58.7555C52.5814 58.7555 52.6012 58.645 52.6394 56.9018C52.6618 55.8822 52.7331 55.0481 52.7979 55.0481C52.8628 55.0481 53.7193 55.9005 54.7014 56.9423C56.1386 58.4671 56.5264 58.804 56.6889 58.6692C56.8462 58.5388 56.8909 57.9737 56.8909 56.1161C56.8909 54.0628 56.8584 53.7181 56.6579 53.6411C56.2646 53.4904 56.1682 53.8892 56.1594 55.7023L56.151 57.447L54.2971 55.5206C53.2774 54.461 52.3615 53.5942 52.2617 53.5942C52.1619 53.5942 52.048 53.6785 52.0084 53.7814ZM68.6277 53.6912C68.5743 53.7444 68.5306 54.8913 68.5306 56.24C68.5306 58.3158 68.5651 58.7052 68.7552 58.778C69.0875 58.9053 69.1759 58.7448 69.2573 57.8655L69.3309 57.071L70.2477 57.9496C71.2167 58.878 71.3959 58.9683 71.5379 58.5986C71.5966 58.4456 71.3689 58.1088 70.8571 57.5909L70.0882 56.8129L70.4611 56.3701C70.6661 56.1266 70.8768 55.7325 70.929 55.4945C71.055 54.9217 70.6516 54.0812 70.1188 53.8059C69.6972 53.5881 68.7998 53.519 68.6277 53.6912ZM13.7779 54.6372C13.963 54.8111 14.1146 55.076 14.1146 55.2257C14.1146 55.4937 13.4635 56.2112 13.2204 56.2112C13.152 56.2112 13.0961 55.7859 13.0961 55.2661C13.0961 54.2276 13.22 54.1135 13.7779 54.6372ZM69.9856 54.6119C70.3748 55.0008 70.3524 55.4217 69.9194 55.8542C69.3689 56.4045 69.2581 56.3061 69.2581 55.2661C69.2581 54.2257 69.4377 54.0644 69.9856 54.6119ZM24.9741 55.3321C25.1452 55.6471 25.2488 55.9409 25.2046 55.9852C25.1005 56.089 23.8629 56.0909 23.8629 55.9873C23.8629 55.8118 24.4585 54.7574 24.557 54.7584C24.6155 54.7592 24.8031 55.0172 24.9741 55.3321ZM65.7518 55.2744C65.9198 55.559 66.0572 55.8534 66.0572 55.9287C66.0572 56.0041 65.7626 56.0658 65.4025 56.0658C65.0424 56.0658 64.7477 56.0025 64.7477 55.9253C64.7477 55.7006 65.2279 54.7573 65.3422 54.7573C65.3995 54.7573 65.5839 54.9901 65.7518 55.2744ZM76.4333 55.2711C76.784 56.0059 76.7531 56.0658 76.0238 56.0658C75.6637 56.0658 75.369 56.0041 75.369 55.9287C75.369 55.7283 75.9616 54.7573 76.084 54.7573C76.1412 54.7573 76.2985 54.9885 76.4333 55.2711ZM81.2617 62.084C80.6215 62.3525 78.8864 63.0732 77.406 63.6857C73.4991 65.302 72.8228 65.6103 72.8228 65.7759C72.8228 65.9442 73.0018 66.0871 77.6509 69.6319C79.5061 71.0464 81.0909 72.2038 81.1726 72.2038C81.2544 72.2038 81.3532 71.9913 81.3923 71.7313C81.5863 70.4406 81.7836 68.9564 81.9091 67.8422C81.9858 67.1625 82.1819 65.625 82.3452 64.4256C82.6692 62.0435 82.6996 61.5892 82.5348 61.5931C82.4747 61.5946 81.9019 61.8154 81.2617 62.084Z" fill="#458200"/>
</svg>
