<svg width="89" height="62" viewBox="0 0 89 62" fill="none" xmlns="http://www.w3.org/2000/svg">
<path fill-rule="evenodd" clip-rule="evenodd" d="M60.1406 1.22001C59.627 1.87545 58.709 3.03702 58.1009 3.80132C56.0212 6.41448 55.3793 7.25542 55.4275 7.30357C55.4539 7.33007 56.1191 7.43869 56.9054 7.54507C57.6918 7.65145 59.2877 7.881 60.4518 8.05518C64.1291 8.60536 64.4994 8.65302 64.5672 8.58508C64.6038 8.54863 64.548 8.32977 64.4435 8.09898C64.3389 7.86806 63.8286 6.58742 63.3097 5.25303C62.7908 3.91865 62.2938 2.65891 62.2051 2.45362C62.1166 2.24833 61.8617 1.61852 61.6387 1.05391C61.4157 0.489301 61.1974 0.0275833 61.1538 0.0278321C61.1101 0.0279566 60.6542 0.564449 60.1406 1.22001ZM44.4665 4.03995C43.7409 9.55679 43.5641 11.0014 43.6088 11.0461C43.6504 11.0876 44.7951 10.6258 48.0006 9.27399C48.951 8.87323 51.7916 7.33431 51.7954 7.21822C51.797 7.16995 50.5576 6.19015 49.0413 5.0409C47.5251 3.89165 45.988 2.71328 45.6257 2.42251C45.2634 2.13175 44.9178 1.89374 44.8578 1.89374C44.7978 1.89374 44.6216 2.85947 44.4665 4.03995ZM75.5178 6.4202C71.2852 8.16331 68.5232 9.32388 68.2672 9.46708C68.131 9.54323 68.9654 10.2451 71.4815 12.1704C75.2145 15.0273 75.4112 15.1679 75.5208 15.0583C75.5623 15.017 75.8184 13.2278 76.0901 11.0823C76.3616 8.93694 76.618 6.91564 76.6597 6.59053C76.7013 6.26543 76.6855 6.00191 76.6246 6.00477C76.5637 6.00763 76.0657 6.19463 75.5178 6.4202ZM39.521 15.8068C39.3769 15.9271 39.1949 16.1455 39.1163 16.2922C38.9132 16.6714 38.9122 40.4417 39.1153 40.8871C39.379 41.4656 40.4832 41.7604 41.2688 41.4619C41.4444 41.3952 41.7001 41.1572 41.8368 40.9331C42.0807 40.5334 42.0854 40.2997 42.0858 28.6311C42.0862 20.8011 42.0426 16.6112 41.9582 16.3696C41.8878 16.1676 41.6691 15.9074 41.4721 15.7911C40.9875 15.5051 39.8715 15.5141 39.521 15.8068ZM47.6602 15.9428L47.2536 16.3057L47.2162 28.2291C47.1897 36.6661 47.2191 40.2905 47.3163 40.6249C47.4075 40.938 47.5882 41.1792 47.8517 41.3398C48.614 41.8042 49.8828 41.5532 50.1602 40.8831C50.2717 40.6135 50.3 37.5356 50.275 28.3519L50.2418 16.1782L49.8683 15.8796C49.5721 15.6427 49.3471 15.5809 48.7808 15.5804C48.1673 15.5799 48.0095 15.6309 47.6602 15.9428ZM31.641 16.0023C30.8264 16.4533 30.7721 18.0975 31.5549 18.61C32.2552 19.0685 33.2731 18.949 33.742 18.3534C33.9298 18.115 33.993 17.848 33.993 17.2952C33.993 16.644 33.9497 16.5127 33.6291 16.1923C33.3162 15.8796 33.172 15.8292 32.6018 15.833C32.237 15.8354 31.8047 15.9116 31.641 16.0023ZM77.6968 18.0292C77.6968 18.0882 78.0102 18.8909 78.3932 19.8131C78.7762 20.7352 79.3316 22.0775 79.6275 22.796C80.7231 25.4566 81.1237 26.357 81.236 26.411C81.2994 26.4415 81.9303 25.7105 82.6381 24.7867C86.3371 19.9583 86.9047 19.1782 86.7562 19.1273C86.5551 19.0586 85.3279 18.8935 81.6189 18.4363C79.9754 18.2336 78.4206 18.0349 78.1637 17.9948C77.907 17.9547 77.6968 17.9701 77.6968 18.0292ZM58.7354 25.0424C56.6754 25.3818 54.7858 27.1411 54.3339 29.1405C54.1535 29.9391 54.1539 30.0873 54.339 30.9065C54.7458 32.7067 55.5586 33.5722 57.572 34.3493C58.3064 34.6327 58.9622 34.8646 59.0294 34.8646C59.3155 34.8646 60.6349 35.6293 60.8749 35.9344C61.6934 36.974 60.4333 38.5208 58.7598 38.5307C58.1394 38.5345 57.9571 38.4686 57.0789 37.9234C56.0452 37.2816 55.4946 37.1652 54.9271 37.4688C54.5139 37.6898 54.165 38.345 54.1645 38.9011C54.164 39.3307 54.2463 39.4715 54.8254 40.032C55.9975 41.1664 57.4429 41.6533 59.3655 41.5614C60.3547 41.5142 60.6056 41.4514 61.427 41.0457C63.4437 40.0499 64.4961 38.0296 64.1448 35.8289C63.9704 34.7368 63.7021 34.1806 63.0284 33.5141C62.426 32.9182 61.3904 32.4432 59.1521 31.7359C58.5529 31.5465 58.0748 31.3009 57.798 31.0405C57.3951 30.6613 57.3734 30.5996 57.425 29.978C57.4948 29.1355 57.8716 28.6153 58.6561 28.2782C58.9843 28.1371 59.3291 28.0216 59.4223 28.0216C59.5154 28.0216 60.0817 28.2735 60.6804 28.5815C62.0473 29.2842 62.3817 29.2953 63.019 28.6584C63.4521 28.2256 63.5024 28.1103 63.5024 27.5511C63.5024 26.9538 63.473 26.9 62.8239 26.3071C61.7772 25.3512 60.0688 24.8228 58.7354 25.0424ZM31.6796 25.178C31.5371 25.2471 31.3271 25.4618 31.2126 25.6553C31.0249 25.9731 31.0047 26.7056 31.0047 33.2271C31.0047 37.5233 31.053 40.5741 31.1239 40.7604C31.4013 41.4894 33.0481 41.7116 33.6579 41.1025L33.9307 40.8299L33.9649 33.4633C33.9898 28.0731 33.96 26.0028 33.8539 25.7469C33.7741 25.5545 33.5515 25.3158 33.3591 25.2163C32.9618 25.011 32.0661 24.9906 31.6796 25.178ZM3.39301 25.4493C3.23836 25.5351 3.01424 25.7431 2.89496 25.9115C2.69674 26.1914 2.67482 26.7855 2.63872 32.8739C2.61705 36.5349 2.63535 39.826 2.6793 40.1876C2.79846 41.166 3.13004 41.4883 4.08891 41.5576C4.82701 41.611 4.86711 41.5981 5.29057 41.175L5.72873 40.7372L5.7306 36.4634C5.73272 31.5978 5.80717 31.0071 6.5459 30.0016C7.5801 28.5938 9.56358 28.0228 11.0205 28.7135C11.6143 28.9949 12.4719 29.8219 12.7729 30.4032C13.2692 31.3619 13.321 31.9188 13.3225 36.3184C13.3234 38.7763 13.3753 40.7063 13.4454 40.8907C13.5121 41.0663 13.7503 41.3217 13.9746 41.4583C14.6736 41.8842 15.5374 41.7344 16.1258 41.0855C16.3628 40.824 16.3775 40.5879 16.4368 36.0649L16.499 31.3187L16.8442 30.6166C17.6534 28.9707 19.4713 28.0809 21.1015 28.5332C21.9446 28.7671 22.8642 29.4474 23.3744 30.2147L23.8453 30.9232L23.9075 35.7243C23.9723 40.719 23.9919 40.8978 24.5192 41.2974C24.867 41.5611 25.6936 41.6207 26.1807 41.4172C27.0155 41.0687 27.0203 41.0358 27.0203 35.7523V31.0289L26.634 30.0179C25.6262 27.3806 24.012 25.9271 21.584 25.4705C20.2129 25.2126 19.0876 25.2997 17.7575 25.7669C16.9957 26.0344 15.6115 26.9567 15.2142 27.4613C15.0794 27.6327 14.9181 27.7728 14.8557 27.7728C14.7935 27.7728 14.5494 27.5723 14.3134 27.3273C13.2203 26.1925 12.1192 25.6487 10.3966 25.3928C8.92994 25.1748 7.39072 25.5595 6.32751 26.4099C5.76571 26.8592 5.72873 26.8615 5.72873 26.4499C5.72873 26.2357 5.57508 25.9777 5.2841 25.7034C4.90732 25.3485 4.75044 25.285 4.25687 25.2888C3.93638 25.2912 3.54778 25.3634 3.39301 25.4493ZM81.6294 30.2871C81.5968 30.4439 81.3941 31.9999 81.1789 33.7448C80.9636 35.4898 80.7161 37.4214 80.6287 38.0373C80.5413 38.6532 80.4897 39.1798 80.514 39.2077C80.5536 39.2531 87.6162 36.3546 88.6251 35.8791C88.8488 35.7736 89.0169 35.6482 88.9986 35.6005C88.9557 35.4893 88.0762 34.8036 83.9849 31.6919C81.5365 29.8296 81.7036 29.9293 81.6294 30.2871ZM78.3901 43.4227C77.9858 43.9506 77.1462 45.0505 76.5243 45.8669C75.9022 46.6832 74.987 47.8841 74.4906 48.5355C73.9942 49.1868 73.5879 49.757 73.5879 49.8025C73.5879 49.896 73.695 49.9125 77.5723 50.4218C81.4821 50.9352 82.6836 51.0752 82.7279 51.0225C82.7491 50.9973 82.3337 49.941 81.8049 48.6751C81.2763 47.4091 80.4961 45.5335 80.0714 44.507C79.6466 43.4806 79.2599 42.6007 79.212 42.5518C79.1642 42.5029 78.7942 42.8948 78.3901 43.4227ZM17.7083 45.2147C17.6025 45.3205 17.5574 45.9672 17.5574 47.3784C17.5574 49.0402 17.5909 49.4188 17.7494 49.5503C18.123 49.8603 18.1867 49.5058 18.1518 47.3074C18.1182 45.1795 18.0527 44.8706 17.7083 45.2147ZM20.6651 45.4045C20.568 45.5952 20.051 46.5548 19.5163 47.5369C18.7699 48.9078 18.5763 49.3614 18.6825 49.4891C18.9097 49.7627 19.1305 49.5721 19.5635 48.7283L19.974 47.9285H21.0049H22.0356L22.3359 48.5208C22.7749 49.3864 23.0585 49.6943 23.2841 49.5503C23.4415 49.4499 23.389 49.2734 22.9425 48.4002C21.6674 45.9064 21.218 45.127 21.0361 45.0935C20.9261 45.0733 20.7651 45.2083 20.6651 45.4045ZM49.5156 45.1499C49.3741 45.2911 49.4187 49.5227 49.5625 49.6116C49.847 49.7874 50.0446 49.3907 50.0807 48.571L50.1173 47.7419L51.3313 47.7063C52.2502 47.6793 52.5491 47.7096 52.5608 47.8308C52.5692 47.9187 52.5657 48.2707 52.5529 48.6128C52.5284 49.2662 52.7682 49.7782 53.0244 49.6199C53.1238 49.5586 53.1679 48.8662 53.1679 47.3687C53.1679 45.8712 53.1238 45.1788 53.0244 45.1174C52.7719 44.9615 52.531 45.4719 52.5492 46.1245C52.5588 46.4666 52.5618 46.8166 52.5559 46.9021C52.5482 47.0154 52.2076 47.0576 51.3002 47.0576H50.0551V46.2116C50.0551 45.2975 49.8236 44.842 49.5156 45.1499ZM54.7054 47.0887C53.4797 49.3381 53.449 49.412 53.6806 49.5551C53.9163 49.7006 54.1336 49.4746 54.5495 48.6514L54.9147 47.9285L55.94 47.9289L56.9655 47.9292L57.4013 48.7625C57.641 49.2208 57.9071 49.6172 57.9926 49.6434C58.2627 49.7261 58.3165 49.2922 58.0948 48.8193C57.4497 47.4426 56.1014 45.0669 55.9652 45.0669C55.8781 45.0669 55.3112 45.9768 54.7054 47.0887ZM61.7748 45.2348C61.6724 45.3581 61.6388 46.0396 61.6627 47.5095C61.6955 49.5139 61.7082 49.6082 61.946 49.6082C62.1858 49.6082 62.195 49.5252 62.195 47.379C62.195 45.1559 62.1273 44.8104 61.7748 45.2348ZM64.261 46.28C63.9123 46.9471 63.403 47.9075 63.1294 48.414C62.7611 49.096 62.6664 49.3767 62.7649 49.4954C62.9803 49.7546 63.1656 49.5915 63.6273 48.7359L64.0627 47.9289L65.0882 47.9287L66.1135 47.9285L66.505 48.7062C66.9476 49.5857 67.1039 49.733 67.3419 49.4952C67.4807 49.3566 67.3696 49.0635 66.6717 47.7267C65.4635 45.4123 65.2548 45.0669 65.0651 45.0669C64.9716 45.0669 64.6098 45.6129 64.261 46.28ZM0.00117122 47.3541C0.00117122 49.8293 -0.0861119 49.6672 1.24629 49.6668C2.03333 49.6665 2.28547 49.5512 2.22222 49.22C2.18512 49.0255 2.04541 48.9799 1.39409 48.9489L0.610534 48.9117L0.648262 48.3268L0.685988 47.7419L1.37081 47.7037C2.14664 47.6604 2.35757 47.5329 2.12224 47.2495C2.01441 47.1197 1.74409 47.0576 1.28651 47.0576H0.610036L0.648013 46.4666L0.685988 45.8756L1.39222 45.8127C2.1703 45.7434 2.30938 45.6695 2.19943 45.3833C2.14091 45.231 1.90596 45.1913 1.06339 45.1913H0.00117122V47.3541ZM2.948 45.2743C2.80668 45.4154 2.85113 49.5227 2.99494 49.6116C3.06641 49.6557 3.20649 49.6241 3.30622 49.5415C3.4463 49.4253 3.48751 49.0554 3.48751 47.9134C3.48751 47.1005 3.52947 46.4411 3.5809 46.448C3.63232 46.4548 4.31863 47.1528 5.10617 47.9988C7.05728 50.0952 7.03611 50.1021 7.03611 47.3687C7.03611 45.27 7.03399 45.2533 6.75596 45.2137C6.47767 45.1743 6.47581 45.185 6.47581 46.8001C6.47581 47.7361 6.426 48.4262 6.35839 48.4262C6.29377 48.4262 6.15568 48.3048 6.05159 48.1562C5.79597 47.7916 3.22043 45.1913 3.11485 45.1913C3.06878 45.1913 2.99357 45.2287 2.948 45.2743ZM7.80398 45.2743C7.64784 45.4302 7.70923 49.3601 7.87034 49.5211C8.02499 49.6756 9.41355 49.7298 9.76517 49.5949C9.87349 49.5533 9.96215 49.4193 9.96215 49.2971C9.96215 49.0131 9.7201 48.9239 8.94899 48.9239H8.32979L8.36777 48.3329L8.40574 47.7419L9.12953 47.7043C9.79468 47.6699 9.85009 47.6446 9.81435 47.3933C9.78011 47.153 9.68835 47.1153 9.05943 47.0825L8.34349 47.0452V46.4293V45.8134H9.01311C9.68448 45.8134 10.0743 45.5978 9.90325 45.3212C9.81597 45.18 7.94019 45.1381 7.80398 45.2743ZM10.6678 45.2743C10.5264 45.4154 10.5709 49.5227 10.7147 49.6116C10.9854 49.7788 11.2073 49.3938 11.2073 48.7567V48.1224L11.9888 48.8964C12.8109 49.7106 12.9974 49.803 13.1286 49.4614C13.1848 49.3151 13.0204 49.0616 12.5816 48.6176C12.2366 48.2686 11.9543 47.9318 11.9543 47.8692C11.9543 47.8067 12.1071 47.5961 12.2939 47.4014C12.8203 46.8523 12.7733 46.1659 12.1712 45.6146C11.8129 45.2865 11.6012 45.1913 11.2298 45.1913C10.9663 45.1913 10.7133 45.2287 10.6678 45.2743ZM14.3202 45.3311C13.6349 45.6042 13.1235 46.3102 13.07 47.0576C12.9997 48.0365 13.0689 48.2943 13.5419 48.8181C14.0691 49.4019 14.6063 49.6704 15.2474 49.6704C15.8124 49.6704 16.6593 49.3304 16.8139 49.0415C16.98 48.7315 16.9666 47.5124 16.7951 47.341C16.5078 47.0539 16.3123 47.316 16.3123 47.9889C16.3123 48.7619 16.1622 48.9315 15.4094 49.009C14.4885 49.1038 13.573 48.3273 13.573 47.4517C13.573 47.0067 13.935 46.3362 14.3249 46.0588C14.9212 45.6345 15.3462 45.6221 16.0561 46.0081C16.5211 46.2611 16.7295 46.3172 16.8301 46.2167C17.0319 46.015 16.8743 45.7243 16.4099 45.4413C15.961 45.1679 14.8737 45.1106 14.3202 45.3311ZM25.3602 45.2743C25.3145 45.3199 25.2771 46.2698 25.2771 47.385C25.2771 49.7266 25.2481 49.6718 26.4829 49.6685C27.3087 49.6663 27.5621 49.5544 27.4982 49.22C27.4611 49.0255 27.3214 48.9799 26.6701 48.9489L25.8865 48.9117L25.9242 48.3268L25.962 47.7419L26.6468 47.7037C27.4226 47.6604 27.6335 47.5329 27.3982 47.2495C27.2908 47.1201 27.0207 47.0576 26.5693 47.0576H25.8997V46.4355V45.8134L26.5534 45.8116C27.2995 45.8093 27.5885 45.6778 27.4782 45.3905C27.417 45.2313 27.2055 45.1913 26.4224 45.1913C25.8838 45.1913 25.4058 45.2287 25.3602 45.2743ZM29.7181 45.2743C29.6724 45.3199 29.6351 46.2698 29.6351 47.385C29.6351 49.7178 29.6109 49.6704 30.7995 49.6704C31.634 49.6704 31.8763 49.5864 31.8763 49.2971C31.8763 49.0131 31.6342 48.9239 30.8631 48.9239H30.2439L30.2819 48.3329L30.3199 47.7419L31.0047 47.7037C31.7805 47.6604 31.9915 47.5329 31.7561 47.2495C31.6487 47.1201 31.3786 47.0576 30.9273 47.0576H30.2576V46.4355V45.8134L30.9113 45.8116C31.6574 45.8093 31.9464 45.6778 31.8361 45.3905C31.7749 45.2313 31.5634 45.1913 30.7803 45.1913C30.2417 45.1913 29.7637 45.2287 29.7181 45.2743ZM32.5032 45.432C32.3665 45.6873 32.3254 48.9153 32.4528 49.3905C32.5449 49.734 32.8189 49.7539 32.9925 49.4298C33.0634 49.2974 33.124 48.5555 33.1274 47.7812L33.1334 46.3733L34.6535 47.9597C35.4898 48.8322 36.2715 49.546 36.3909 49.546C36.5888 49.546 36.6078 49.3558 36.6078 47.3687C36.6078 45.2743 36.5983 45.1913 36.3587 45.1913C36.1225 45.1913 36.1097 45.2743 36.1097 46.8088C36.1097 47.6984 36.0677 48.4255 36.0163 48.4245C35.9649 48.4235 35.2309 47.6956 34.3852 46.807C33.5394 45.9184 32.7989 45.1913 32.7398 45.1913C32.6805 45.1913 32.5742 45.2996 32.5032 45.432ZM38.407 45.3664C37.7067 45.6712 37.1024 46.6613 37.1093 47.4931C37.1149 48.1863 37.9242 49.2682 38.6392 49.538C39.3838 49.8192 40.7035 49.5379 40.9693 49.0415C41.1354 48.7315 41.1219 47.5124 40.9505 47.341C40.6631 47.0539 40.4676 47.316 40.4676 47.9889C40.4676 48.747 40.3269 48.9164 39.6182 49.0114C38.6974 49.1348 37.7284 48.3583 37.7284 47.4972C37.7284 46.7125 38.4055 45.8943 39.1809 45.7421C39.518 45.676 40.145 45.8829 40.6198 46.2168C40.7825 46.3314 40.8692 46.3329 40.9788 46.2234C41.1869 46.0154 41.0347 45.7273 40.5653 45.4413C40.0838 45.148 38.9955 45.1102 38.407 45.3664ZM41.7958 45.2743C41.6397 45.4302 41.7011 49.3601 41.8622 49.5211C42.0873 49.746 43.6361 49.7167 43.8295 49.4838C44.1041 49.1529 43.764 48.9239 42.9981 48.9239H42.3216L42.3596 48.3329L42.3976 47.7419L43.0577 47.7041C43.513 47.678 43.7409 47.6065 43.7919 47.4738C43.8971 47.1997 43.6091 47.0617 42.9268 47.0595L42.3353 47.0576V46.4355V45.8134H42.9952C43.6799 45.8134 43.9819 45.6577 43.8687 45.3628C43.8206 45.2376 43.5432 45.1913 42.8408 45.1913C42.3117 45.1913 41.8414 45.2287 41.7958 45.2743ZM44.5072 45.3516C44.4733 45.4398 44.4611 46.4337 44.4799 47.56C44.5127 49.5138 44.5257 49.6082 44.7633 49.6082C44.9975 49.6082 45.0145 49.5136 45.0472 48.0219C45.0664 47.1493 45.1274 46.4355 45.1828 46.4355C45.2383 46.4355 45.9713 47.165 46.8118 48.0566C48.0417 49.3615 48.3735 49.6497 48.5126 49.5344C48.6472 49.4228 48.6854 48.9392 48.6854 47.3495C48.6854 45.5923 48.6577 45.2973 48.4861 45.2315C48.1495 45.1025 48.067 45.4438 48.0595 46.9954L48.0523 48.4884L46.4658 46.8399C45.5932 45.9331 44.8094 45.1913 44.724 45.1913C44.6385 45.1913 44.5411 45.2635 44.5072 45.3516ZM58.7295 45.2743C58.6838 45.3199 58.6464 46.3014 58.6464 47.4555C58.6464 49.232 58.6759 49.5652 58.8385 49.6275C59.1229 49.7365 59.1986 49.5991 59.2682 48.8466L59.3312 48.1667L60.1158 48.9185C60.945 49.7131 61.0984 49.7903 61.22 49.474C61.2701 49.3431 61.0753 49.0548 60.6374 48.6116L59.9793 47.9458L60.2984 47.5669C60.4739 47.3585 60.6542 47.0213 60.6989 46.8176C60.8067 46.3274 60.4614 45.6081 60.0055 45.3725C59.6448 45.1861 58.8768 45.127 58.7295 45.2743ZM11.7907 46.0839C11.9491 46.2327 12.0789 46.4594 12.0789 46.5876C12.0789 46.8169 11.5217 47.4309 11.3136 47.4309C11.2551 47.4309 11.2073 47.0669 11.2073 46.6222C11.2073 45.7334 11.3132 45.6358 11.7907 46.0839ZM59.8915 46.0623C60.2246 46.3951 60.2054 46.7553 59.8349 47.1254C59.3637 47.5963 59.269 47.5121 59.269 46.6222C59.269 45.7318 59.4226 45.5937 59.8915 46.0623ZM21.3721 46.6786C21.5185 46.9481 21.6072 47.1996 21.5693 47.2375C21.4803 47.3264 20.4212 47.328 20.4212 47.2393C20.4212 47.0891 20.9308 46.1868 21.0151 46.1877C21.0651 46.1883 21.2258 46.4091 21.3721 46.6786ZM56.2684 46.6292C56.4122 46.8727 56.5297 47.1247 56.5297 47.1891C56.5297 47.2537 56.2776 47.3065 55.9694 47.3065C55.6612 47.3065 55.4091 47.2523 55.4091 47.1863C55.4091 46.9939 55.82 46.1867 55.9179 46.1867C55.9669 46.1867 56.1247 46.3859 56.2684 46.6292ZM65.4093 46.6264C65.7094 47.2552 65.683 47.3065 65.0588 47.3065C64.7506 47.3065 64.4985 47.2537 64.4985 47.1891C64.4985 47.0177 65.0056 46.1867 65.1103 46.1867C65.1593 46.1867 65.2939 46.3845 65.4093 46.6264ZM69.5412 52.4566C68.9934 52.6864 67.5086 53.3032 66.2417 53.8273C62.8983 55.2105 62.3195 55.4744 62.3195 55.6161C62.3195 55.7601 62.4727 55.8824 66.4512 58.9159C68.0389 60.1264 69.3951 61.1169 69.465 61.1169C69.535 61.1169 69.6196 60.935 69.653 60.7125C69.819 59.608 69.9879 58.3379 70.0953 57.3843C70.1609 56.8027 70.3288 55.487 70.4685 54.4605C70.7458 52.422 70.7718 52.0332 70.6307 52.0366C70.5793 52.0378 70.0891 52.2268 69.5412 52.4566Z" fill="#F5F6FA"/>
</svg>
