<svg width="58" height="59" viewBox="0 0 58 59" fill="none" xmlns="http://www.w3.org/2000/svg">
<path d="M1.57037 29.2291C1.56902 34.1115 2.84475 38.8788 5.27053 43.0808L1.33838 57.4377L16.0309 53.5853C20.0946 55.7975 24.6478 56.9567 29.2747 56.957H29.2868C44.5611 56.957 56.9948 44.5279 57.0013 29.2509C57.0042 21.8481 54.1239 14.887 48.8908 9.64986C43.6586 4.41315 36.7 1.52767 29.2857 1.52429C14.0096 1.52429 1.5769 13.9527 1.5706 29.2291" fill="url(#paint0_linear_754_18)"/>
<path d="M0.580967 29.22C0.57939 34.2781 1.90084 39.2159 4.41311 43.5683L0.339966 58.4399L15.5593 54.4494C19.7527 56.7358 24.4741 57.9412 29.2783 57.943H29.2907C45.113 57.943 57.9933 45.0668 58 29.243C58.0027 21.5742 55.0188 14.3628 49.5988 8.93805C44.1781 3.51395 36.9706 0.524638 29.2907 0.521484C13.4657 0.521484 0.587273 13.3959 0.580967 29.22ZM9.64463 42.8188L9.07637 41.9167C6.68753 38.1183 5.42667 33.729 5.42847 29.2218C5.43342 16.0692 16.1375 5.36853 29.2997 5.36853C35.6739 5.37124 41.6642 7.85603 46.1698 12.3643C50.6752 16.8731 53.1543 22.8666 53.1528 29.2412C53.1469 42.3937 42.4426 53.0958 29.2907 53.0958H29.2813C24.9989 53.0935 20.7989 51.9435 17.1362 49.7702L16.2645 49.2533L7.23305 51.6211L9.64463 42.8188Z" fill="url(#paint1_linear_754_18)"/>
<path d="M22.1151 17.2221C21.5777 16.0277 21.0121 16.0036 20.5011 15.9826C20.0826 15.9646 19.6042 15.966 19.1262 15.966C18.6478 15.966 17.8706 16.1459 17.2136 16.8633C16.5559 17.5813 14.7026 19.3166 14.7026 22.8458C14.7026 26.3752 17.2732 29.7859 17.6316 30.265C17.9904 30.7432 22.5942 38.2173 29.8855 41.0927C35.9452 43.4822 37.1784 43.007 38.4935 42.8871C39.8089 42.7678 42.7378 41.1524 43.3354 39.4773C43.9334 37.8025 43.9334 36.3668 43.7541 36.0668C43.5748 35.7679 43.0964 35.5884 42.379 35.2298C41.6614 34.871 38.1347 33.1356 37.4772 32.8962C36.8196 32.657 36.3414 32.5376 35.863 33.2559C35.3846 33.973 34.0109 35.5884 33.5922 36.0668C33.1739 36.5463 32.7552 36.606 32.038 36.2472C31.3202 35.8873 29.01 35.1307 26.2691 32.6872C24.1366 30.7857 22.6969 28.4377 22.2784 27.7194C21.8599 27.0022 22.2336 26.6135 22.5933 26.256C22.9156 25.9346 23.3109 25.4184 23.6699 24.9997C24.0276 24.5807 24.147 24.2819 24.3861 23.8035C24.6256 23.3246 24.5057 22.9057 24.3267 22.5469C24.147 22.1881 22.753 18.6404 22.1151 17.2221Z" fill="white"/>
<defs>
<linearGradient id="paint0_linear_754_18" x1="2784.48" y1="5592.86" x2="2784.48" y2="1.52429" gradientUnits="userSpaceOnUse">
<stop stop-color="#1FAF38"/>
<stop offset="1" stop-color="#60D669"/>
</linearGradient>
<linearGradient id="paint1_linear_754_18" x1="2883.34" y1="5792.36" x2="2883.34" y2="0.521484" gradientUnits="userSpaceOnUse">
<stop stop-color="#F9F9F9"/>
<stop offset="1" stop-color="white"/>
</linearGradient>
</defs>
</svg>
